<?xml version="1.0" encoding="UTF-8"?>
<svg id="Layer_1" data-name="Layer 1" xmlns="http://www.w3.org/2000/svg" viewBox="0 0 250 150">
  <defs>
    <style>
      .cls-1 {
        fill: #005b5b;
      }

      .cls-2 {
        fill: #869b5b;
      }
    </style>
  </defs>
  <g>
    <path class="cls-2" d="m46.59,101.39h-6.18v15.11h-2.73v-15.11h-6.2v-2.46h15.11v2.46Z"/>
    <path class="cls-2" d="m51.41,101.39v5h8.69v2.35h-8.69v5.27h9.95v2.49h-12.63v-17.57h12.66v2.46h-9.97Z"/>
    <path class="cls-2" d="m72.36,116.86c-2.61,0-4.79-.87-6.54-2.62s-2.62-3.92-2.62-6.52.87-4.77,2.61-6.49c1.74-1.73,3.91-2.6,6.52-2.6,2.11,0,3.91.53,5.39,1.59,1.48,1.07,2.48,2.36,2.98,3.9l-2.63.66c-.38-1.04-1.08-1.9-2.1-2.59s-2.22-1.03-3.6-1.03c-1.89,0-3.42.62-4.59,1.89s-1.76,2.81-1.76,4.63.59,3.39,1.76,4.68,2.71,1.92,4.59,1.92c1.38,0,2.59-.33,3.6-1,1.02-.67,1.72-1.53,2.08-2.57l2.63.67c-.5,1.52-1.48,2.81-2.95,3.86-1.47,1.05-3.25,1.58-5.34,1.58l-.02.04Z"/>
    <path class="cls-2" d="m97.99,98.93v17.57h-2.71v-7.73h-9.13v7.73h-2.74v-17.57h2.74v7.39h9.13v-7.39h2.71Z"/>
    <path class="cls-2" d="m122.43,98.93v17.57h-2.71v-7.73h-9.13v7.73h-2.74v-17.57h2.74v7.39h9.13v-7.39h2.71Z"/>
    <path class="cls-2" d="m134.33,116.84c-2.61,0-4.79-.87-6.54-2.62-1.75-1.75-2.62-3.92-2.62-6.52s.87-4.77,2.61-6.49c1.74-1.73,3.92-2.6,6.54-2.6s4.79.87,6.53,2.6c1.74,1.73,2.61,3.88,2.61,6.48s-.87,4.77-2.61,6.52c-1.74,1.75-3.91,2.62-6.52,2.62h0Zm0-2.49c1.89,0,3.43-.64,4.62-1.92,1.19-1.29,1.79-2.87,1.79-4.74s-.6-3.39-1.8-4.66c-1.2-1.26-2.73-1.9-4.61-1.9s-3.43.62-4.63,1.89c-1.2,1.26-1.8,2.81-1.8,4.64s.6,3.46,1.8,4.74c1.2,1.29,2.74,1.92,4.63,1.92v.02Z"/>
    <path class="cls-2" d="m160.86,98.94v10.46c0,2.24-.65,4.04-1.96,5.4-1.31,1.36-3.12,2.03-5.45,2.03s-4.14-.67-5.45-2.02c-1.31-1.35-1.96-3.15-1.96-5.42v-10.46h2.73v10.41c0,1.51.4,2.71,1.21,3.61s1.96,1.36,3.47,1.36,2.66-.45,3.46-1.36,1.2-2.12,1.2-3.63v-10.41h2.76Z"/>
    <path class="cls-2" d="m170.84,116.84c-1.96,0-3.64-.51-5.05-1.53-1.41-1.02-2.36-2.28-2.87-3.77l2.57-.77c.4,1.07,1.09,1.95,2.06,2.63.97.69,2.11,1.03,3.43,1.03,1.16,0,2.12-.28,2.87-.83.75-.55,1.13-1.19,1.13-1.91,0-.59-.21-1.08-.64-1.48-.43-.4-1.14-.76-2.14-1.08l-4.41-1.41c-2.63-.82-3.95-2.25-3.95-4.3,0-1.32.58-2.46,1.73-3.41,1.15-.94,2.6-1.42,4.34-1.42s3.33.42,4.63,1.25c1.3.83,2.22,1.87,2.76,3.12l-2.54.76c-.42-.82-1.04-1.48-1.89-1.98-.85-.5-1.83-.75-2.94-.75-.97,0-1.76.23-2.39.7-.62.47-.94,1.02-.94,1.65,0,.5.18.92.54,1.25s.93.61,1.72.85l4.31,1.37c1.52.48,2.67,1.07,3.44,1.76s1.16,1.67,1.16,2.92c0,1.51-.64,2.77-1.91,3.8s-2.93,1.54-4.95,1.54h-.07Z"/>
    <path class="cls-2" d="m183.32,101.39v5h8.69v2.35h-8.69v5.27h9.95v2.49h-12.63v-17.57h12.66v2.46h-9.97Z"/>
  </g>
  <path class="cls-2" d="m224.5,112.84c-1.42,0-2.76-.55-3.77-1.56-1.64-1.64-3.83-2.55-6.15-2.55s-4.51.9-6.15,2.55c-1.01,1.01-2.34,1.56-3.77,1.56s-2.76-.55-3.77-1.56c-2.07-2.07-2.07-5.45,0-7.53,1.01-1.01,2.35-1.56,3.77-1.56s2.76.55,3.76,1.56c1.64,1.64,3.83,2.55,6.15,2.55s4.51-.9,6.15-2.55c1-1,2.34-1.56,3.76-1.56s2.76.56,3.77,1.56c1.01,1.01,1.56,2.34,1.56,3.77,0,1.42-.55,2.76-1.56,3.76-1.01,1.01-2.34,1.56-3.77,1.56Z"/>
  <g>
    <polygon class="cls-2" points="215.91 69.97 206.07 76.92 194.81 68.89 195.59 66.89 196.83 63.73 206.08 70.33 213.89 64.8 213.89 64.8 215.91 69.97 215.91 69.97"/>
    <polygon class="cls-2" points="30.59 72.78 33.68 77.15 35.79 75.67 50.95 64.93 65.89 75.58 67.89 77.02 71.02 72.64 69.05 71.24 50.97 58.34 32.6 71.33 32.23 71.6 30.59 72.78"/>
    <path class="cls-1" d="m32.23,71.6l-1.64,1.19-4.01,2.9c4.91,8.26,13.93,13.8,24.21,13.8,13.31,0,24.49-9.27,27.42-21.69.39-1.61.63-3.28.73-4.99.02-.5.03-.99.03-1.49,0-15.53-12.63-28.17-28.18-28.17s-28.17,12.64-28.17,28.17c0,.76.03,1.51.09,2.25l7.55-5.47c1.55-9.93,10.17-17.56,20.53-17.56s18.56,7.26,20.41,16.83c.25,1.28.38,2.61.38,3.95,0,.14,0,.28,0,.42-.04,2.05-.38,4.02-.97,5.88-.36,1.11-.8,2.17-1.32,3.19-.08.15-.15.3-.24.44-.86,1.59-1.93,3.05-3.17,4.35-3.79,4-9.16,6.51-15.09,6.51s-11.22-2.47-15.01-6.43c-1.24-1.3-2.31-2.75-3.19-4.33l-.37.26Z"/>
    <path class="cls-2" d="m50.99,47.22l-31.15,22.45c-.96-.54-2.06-.86-3.24-.86-3.63,0-6.57,2.94-6.57,6.57s2.94,6.57,6.57,6.57,6.57-2.94,6.57-6.57c0-.47-.05-.93-.15-1.38l28.01-20.17,19.57,13.78c.59-1.86.93-3.84.97-5.88l-20.58-14.5Z"/>
    <g>
      <path class="cls-1" d="m121.67,77.86c-3.04,2.02-6.63,3-10.77,3-5.65,0-10.22-1.9-13.74-5.75-3.52-3.85-5.28-8.49-5.28-13.99s1.75-10.07,5.28-13.85c3.51-3.77,8.09-5.64,13.74-5.64,4.14,0,7.73,1.02,10.77,3.07,3.04,2.05,5.13,4.62,6.26,7.73l7.88-1.98c-1.51-4.58-4.47-8.46-8.91-11.64-4.43-3.19-9.82-4.77-16.11-4.77-7.8,0-14.28,2.6-19.49,7.77-5.2,5.17-7.8,11.65-7.8,19.41s2.6,14.25,7.83,19.49c5.24,5.24,11.76,7.84,19.56,7.84l.07-.11c6.27,0,11.58-1.57,15.98-4.72,4.4-3.15,7.33-7,8.83-11.54l-7.87-2.01c-1.1,3.11-3.19,5.67-6.23,7.69Z"/>
      <path class="cls-1" d="m137.94,34.94v7.36h18.53v45.17h8.17v-45.17h18.46v-7.36h-45.16Z"/>
      <path class="cls-1" d="m227.07,77.1l-5.88,4.21-.71.51,2.2,5.64h8.49l-4.1-10.36Z"/>
      <polygon class="cls-1" points="222.4 65.33 215.85 70 215.14 68.18 215.12 68.14 213.13 63.04 213.12 63.02 213.09 62.96 212.46 61.3 205.2 42.66 197.63 61.95 196.36 65.18 195.6 67.11 195.45 67.5 195.46 67.5 194.8 69.19 194.08 71.02 193.5 72.51 192.06 76.18 191.48 77.65 190.19 80.97 187.66 87.46 179.15 87.46 185.47 71.53 185.75 70.82 186.92 67.87 187.5 66.39 189.07 62.44 191.1 57.3 199.96 34.94 210.37 34.94 219.59 58.24 219.66 58.39 221.64 63.41 221.69 63.54 222.4 65.33"/>
    </g>
    <path class="cls-2" d="m239.96,64.93c0,3.63-2.94,6.57-6.57,6.57-1.18,0-2.29-.31-3.24-.86l-10.98,7.85-13.07,9.46-14.62-10.31,2.02-5.15,12.56,8.84,11.09-8.03,9.82-7.01c-.09-.45-.15-.91-.15-1.38,0-3.63,2.94-6.56,6.57-6.56s6.57,2.94,6.57,6.56Z"/>
  </g>
</svg>